<svg xmlns="http://www.w3.org/2000/svg" viewBox="0 0 88.49 96.97"><defs><style>.cls-1{fill:#009daf;}.cls-2{fill:#df3c7d;}.cls-3{fill:#b8267e;}.cls-4{fill:none;stroke:#b8267e;stroke-miterlimit:10;stroke-width:1.5px;}.cls-5{fill:#009fb1;}</style></defs><title>logo</title><g id="Capa_4" data-name="Capa 4"><path class="cls-1" d="M72.21,44.27c-.67-7.79-7.14-18.1-16.28-16.64-3.84.62-6.17,3.87-6.58,7.59-.66,6,3.46,10.24,8.3,13C56.8,47.73,56,52,55.88,52.46a13.14,13.14,0,0,0,3.28,11.68A7.12,7.12,0,0,0,65.66,66c7.14-1.53,10.08-8.56,10.55-15.15.48-6.78-.31-14.84-3.34-21-2.13-4.33-6.1-8.28-11-9.13-1.14-.2-2.58-.22-3.37.79a1.8,1.8,0,0,0-.22,1.89,2.15,2.15,0,0,0,1.38,1,12.1,12.1,0,0,0,2.25.15,11.8,11.8,0,0,1,8.75,5.32,25.51,25.51,0,0,1,3.69,9.86c1,5.29,1.27,10.9-.67,15.92a10.22,10.22,0,0,1-3.08,4.51,7.88,7.88,0,0,1-5.76,1.47,7,7,0,0,1-3.9-1.72,7.24,7.24,0,0,1-1.64-7.29,13.72,13.72,0,0,1,4.54-6.3,15.11,15.11,0,0,1-5.32-1.38,10.17,10.17,0,0,1-5.41-5.3,6.16,6.16,0,0,1,1.7-7c2.14-1.59,5.18-1.22,7.66-.23C67.5,34.3,71.74,38.88,72.21,44.27Z" transform="translate(-33.19 -20.55)"/><path class="cls-2" d="M81.18,44.27c.67-7.79,7.14-18.1,16.28-16.64,3.84.62,6.17,3.87,6.58,7.59.66,6-3.46,10.24-8.3,13,.85-.48,1.68,3.78,1.77,4.25a13.14,13.14,0,0,1-3.28,11.68A7.13,7.13,0,0,1,87.73,66c-7.14-1.53-10.09-8.56-10.55-15.15-.48-6.78.31-14.84,3.34-21,2.13-4.33,6.1-8.28,11-9.13,1.15-.2,2.58-.22,3.37.79a1.83,1.83,0,0,1,.23,1.89,2.14,2.14,0,0,1-1.39,1,11.94,11.94,0,0,1-2.24.15,11.78,11.78,0,0,0-8.75,5.32,25.19,25.19,0,0,0-3.69,9.86c-1,5.29-1.28,10.9.67,15.92A10.22,10.22,0,0,0,82.8,60.1a7.88,7.88,0,0,0,5.76,1.47,7,7,0,0,0,3.89-1.72,7.23,7.23,0,0,0,1.65-7.29,13.72,13.72,0,0,0-4.54-6.3,15.11,15.11,0,0,0,5.32-1.38,10.17,10.17,0,0,0,5.41-5.3,6.16,6.16,0,0,0-1.7-7c-2.14-1.59-5.18-1.22-7.66-.23C85.89,34.3,81.65,38.88,81.18,44.27Z" transform="translate(-33.19 -20.55)"/><path class="cls-3" d="M117.5,67.46a14.43,14.43,0,0,1-2,7.16,15,15,0,0,1-8,6.51,22.4,22.4,0,0,1-8.79,1.1A25.38,25.38,0,0,1,84.46,77a20.08,20.08,0,0,1-7.55-13c.23,1.87-.67,3.67-1.48,5.28q-.69,1.34-1.5,2.61a21,21,0,0,1-6.48,6.48,26.11,26.11,0,0,1-12.34,3.87,22.85,22.85,0,0,1-8.77-1,15.31,15.31,0,0,1-7.2-5,14.19,14.19,0,0,1-2.86-7.85,13.35,13.35,0,0,1,2.95-9.39,10.45,10.45,0,0,1,8.93-3.7c1.5.17,3.19,1,3.32,2.52S50.27,60.24,49,60.68c-2.59.87-5.58.25-8,1.54A6.6,6.6,0,0,0,37.74,67a10,10,0,0,0,1,5.83A15.57,15.57,0,0,0,50.36,81,21.51,21.51,0,0,0,64.5,78a27.7,27.7,0,0,0,4.93-3.76c.62-.6,1.21-1.22,1.77-1.87A22.82,22.82,0,0,1,69.55,74a11.94,11.94,0,0,1-7.76,3.13,11.76,11.76,0,0,1-4-.45c-3.81-1.19-7.1-6.61-4.1-10.1.34-.4,1.09-1.23,1.68-1.08a.85.85,0,0,1,.5.5,1.75,1.75,0,0,1-.13,1.63,6.75,6.75,0,0,1-.83.86,4,4,0,0,0-1.14,3.21,4.71,4.71,0,0,0,2.43,3.37,2.12,2.12,0,0,1-.37-1.4,5.27,5.27,0,0,1,.76-2.75A2.6,2.6,0,0,1,59,69.68c.3,0,.65.23.67.53a.64.64,0,0,1-.11.4c-.35.55-1.05.75-1.57,1.13a2.56,2.56,0,0,0-1,1.66c-.31,2.29,2.27,2.94,4.06,2.92a1.48,1.48,0,0,1-1.24-1.81C60,74,61,72.44,61.72,72.79c.47.23-1.26,2-.8,2.71a1.35,1.35,0,0,0,.52.39c2,.89,4.79-.57,6.36-1.69a21.35,21.35,0,0,0,7-7.88A31,31,0,0,0,76,63.47a14.1,14.1,0,0,0,.78-2.87,12.68,12.68,0,0,0,.53,2.19,0,0,0,0,0,0,0,28.28,28.28,0,0,0,1.48,3.5,21.29,21.29,0,0,0,7,7.88c1.57,1.12,4.4,2.58,6.35,1.69a1.28,1.28,0,0,0,.52-.39c.46-.67-1.27-2.48-.8-2.71.72-.35,1.69,1.2,1.86,1.72a1.48,1.48,0,0,1-1.23,1.81c1.78,0,4.37-.63,4-2.92a2.54,2.54,0,0,0-1-1.66c-.53-.38-1.23-.58-1.57-1.13a.65.65,0,0,1-.12-.4c0-.3.37-.48.68-.53A2.61,2.61,0,0,1,97,70.9a5.26,5.26,0,0,1,.75,2.75,2,2,0,0,1-.37,1.4,4.66,4.66,0,0,0,2.43-3.37,4,4,0,0,0-1.13-3.21,6.13,6.13,0,0,1-.83-.86A1.75,1.75,0,0,1,97.75,66a.8.8,0,0,1,.5-.5c.58-.15,1.33.68,1.67,1.08,3,3.49-.29,8.91-4.09,10.1a12.76,12.76,0,0,1-10.71-1.83c5.16,4.65,12.1,7.6,19.1,6.08a15.3,15.3,0,0,0,11.3-9.69,9.6,9.6,0,0,0,.46-4.44,6.11,6.11,0,0,0-2.13-3.86c-2.45-2-6-1.3-9-2.27-1.26-.41-2.56-1.34-2.59-2.66a2.54,2.54,0,0,1,1.21-2.09,5,5,0,0,1,2.39-.69,10.69,10.69,0,0,1,8.47,3.53A12.87,12.87,0,0,1,117.5,67.46Z" transform="translate(-33.19 -20.55)"/><path class="cls-3" d="M77.34,62.79a12.68,12.68,0,0,1-.53-2.19A14.1,14.1,0,0,1,76,63.47c.17-.7.33-1.4.49-2.1.06-.22.11-.43.16-.64s.12-.39.15-.59a2,2,0,0,1,0,.35c0-.11,0-.22,0-.32A17.79,17.79,0,0,0,77.34,62.79Z" transform="translate(-33.19 -20.55)"/><path class="cls-2" d="M42,105.7v-.64c1.37-.18,1.54-.41,1.24-1.28s-.69-2-1.14-3.48H37.58c-.34,1-.65,1.93-.95,2.86-.46,1.49-.17,1.67,1.56,1.9v.64H33.32v-.64c1.33-.18,1.67-.34,2.41-2.4l4.36-12,.67-.14c1.33,3.92,2.79,8.24,4.11,12.2.68,2,.87,2.17,2.36,2.35v.64ZM39.92,93.51c-.67,2-1.39,4-2,5.86h3.94Z" transform="translate(-33.19 -20.55)"/><path class="cls-2" d="M47.91,105.7v-.64c1.35-.13,1.52-.25,1.52-1.76v-11c0-1.39-.11-1.53-1.46-1.71V90a13.76,13.76,0,0,0,3.12-.77v14c0,1.51.13,1.63,1.5,1.76v.64Z" transform="translate(-33.19 -20.55)"/><path class="cls-2" d="M61.36,103.76a4.72,4.72,0,0,1-3.5,2.22c-2.57,0-4.13-2.29-4.13-4.92a6.11,6.11,0,0,1,1.37-4,4.17,4.17,0,0,1,3.14-1.67,3.44,3.44,0,0,1,3.22,3.54c0,.46-.08.67-.42.76s-3.12.29-5.63.39c-.06,3.06,1.67,4.32,3.16,4.32A3.43,3.43,0,0,0,61,103.23Zm-3.63-7.5c-1,0-1.92,1-2.21,2.83,1.18,0,2.36,0,3.6-.07.38,0,.51-.11.51-.45A2.07,2.07,0,0,0,57.73,96.26Z" transform="translate(-33.19 -20.55)"/><path class="cls-2" d="M67.62,105.7v-.64c.9-.11,1.09-.27.73-.89l-1.58-2.68c-.46.83-.93,1.63-1.35,2.43s-.36,1,.74,1.14v.64h-4v-.64a2.6,2.6,0,0,0,2.38-1.46c.59-.89,1.14-1.79,1.77-2.81L64.52,97.7a2.15,2.15,0,0,0-2.07-1.42v-.62h4.24v.62c-.89.14-1,.32-.59,1l1.26,2.08c.4-.66.82-1.44,1.2-2.12s.24-.83-.67-.94v-.62h3.84v.62A2.68,2.68,0,0,0,69.3,97.7c-.29.43-.8,1.19-1.5,2.33l2,3.39c.8,1.25,1,1.46,2.32,1.64v.64Z" transform="translate(-33.19 -20.55)"/><path class="cls-2" d="M79.71,106a1.5,1.5,0,0,1-1-.44,2.12,2.12,0,0,1-.5-1c-.85.62-1.88,1.47-2.53,1.47a2.71,2.71,0,0,1-2.57-2.82,2.28,2.28,0,0,1,1.72-2.28,15.76,15.76,0,0,0,3.33-1.49v-.46c0-1.62-.75-2.56-1.85-2.56a1.17,1.17,0,0,0-1,.53,5.18,5.18,0,0,0-.57,1.48c-.11.37-.3.53-.61.53a1.06,1.06,0,0,1-.93-1c0-.32.28-.59.7-.91a8.5,8.5,0,0,1,3-1.6,2.76,2.76,0,0,1,1.77.61,3.3,3.3,0,0,1,1.08,2.66v4.41c0,1.05.36,1.37.74,1.37a1.52,1.52,0,0,0,.75-.25l.21.64Zm-1.54-5.79c-.46.25-1.47.73-2,1-.8.39-1.28.82-1.28,1.67a1.6,1.6,0,0,0,1.52,1.76,2.68,2.68,0,0,0,1.72-.82Z" transform="translate(-33.19 -20.55)"/><path class="cls-2" d="M88.44,105.7v-.64c1.22-.13,1.35-.29,1.35-1.85V99.44c0-1.61-.53-2.68-1.92-2.68A3.57,3.57,0,0,0,85.53,98v5.35c0,1.58.13,1.63,1.37,1.76v.64H82.35v-.64c1.39-.16,1.52-.25,1.52-1.76V98.59c0-1.49-.15-1.56-1.29-1.76v-.6a11.27,11.27,0,0,0,3-.91v1.81c.42-.32.89-.67,1.43-1.06a3.08,3.08,0,0,1,1.75-.68c1.69,0,2.74,1.35,2.74,3.57v4.34c0,1.56.13,1.63,1.35,1.76v.64Z" transform="translate(-33.19 -20.55)"/><path class="cls-2" d="M104.23,105.13A20.55,20.55,0,0,0,101,106v-1.49c-.38.25-.93.57-1.31.82A3.62,3.62,0,0,1,98,106c-1.69,0-3.92-1.83-3.92-5a5.52,5.52,0,0,1,5.46-5.56,3.88,3.88,0,0,1,1.43.25V92.28c0-1.47-.15-1.51-1.65-1.65V90a20.23,20.23,0,0,0,3.31-.77v13.79c0,1.19.15,1.35.93,1.39l.68,0ZM101,97.45a2.58,2.58,0,0,0-2.21-1.17c-1,0-2.81.73-2.81,4,0,2.77,1.58,4.24,2.93,4.26a3.64,3.64,0,0,0,2.09-.82Z" transform="translate(-33.19 -20.55)"/><path class="cls-2" d="M110.08,105.7h-4.84v-.64c1.33-.13,1.45-.25,1.45-1.74V98.57c0-1.51-.08-1.58-1.31-1.74v-.57a11.21,11.21,0,0,0,3-.94v2.51c.73-1.18,1.62-2.44,2.67-2.44a1.13,1.13,0,0,1,1.23,1.1,1.55,1.55,0,0,1-.72,1.25.39.39,0,0,1-.55,0,1.27,1.27,0,0,0-.95-.57c-.44,0-1.22.7-1.68,1.87v4.3c0,1.51.1,1.63,1.72,1.76Z" transform="translate(-33.19 -20.55)"/><path class="cls-2" d="M119.84,106a1.5,1.5,0,0,1-1-.44,2.12,2.12,0,0,1-.5-1c-.85.62-1.88,1.47-2.53,1.47a2.71,2.71,0,0,1-2.57-2.82,2.29,2.29,0,0,1,1.72-2.28,16.14,16.14,0,0,0,3.34-1.49v-.46c0-1.62-.76-2.56-1.86-2.56a1.19,1.19,0,0,0-1,.53,5.18,5.18,0,0,0-.57,1.48c-.1.37-.29.53-.61.53a1.06,1.06,0,0,1-.93-1c0-.32.28-.59.7-.91a8.5,8.5,0,0,1,3-1.6,2.76,2.76,0,0,1,1.77.61,3.3,3.3,0,0,1,1.08,2.66v4.41c0,1.05.36,1.37.74,1.37a1.52,1.52,0,0,0,.75-.25l.22.64Zm-1.53-5.79c-.47.25-1.48.73-2,1-.8.39-1.28.82-1.28,1.67a1.6,1.6,0,0,0,1.52,1.76,2.72,2.72,0,0,0,1.73-.82Z" transform="translate(-33.19 -20.55)"/><line class="cls-4" x1="0.79" y1="86.81" x2="87.19" y2="86.81"/><path class="cls-5" d="M39,111.42a2.11,2.11,0,0,0-2.32-1.55c-1.31,0-1.76.67-1.76,1.29,0,.82.73,1.24,2.12,1.75,2,.74,2.88,1.28,2.88,2.41s-1.52,2.2-3.68,2.2a9.51,9.51,0,0,1-2.56-.39,11.8,11.8,0,0,1-.45-1.79l.52-.09a2.81,2.81,0,0,0,2.81,1.83c1.2,0,1.94-.59,1.94-1.37s-.68-1.28-2.16-1.85c-1.76-.68-2.74-1.25-2.74-2.35s1.23-2.06,3.44-2.06a14.63,14.63,0,0,1,2.22.23c.06.42.13.9.26,1.67Z" transform="translate(-33.19 -20.55)"/><path class="cls-5" d="M45.64,109.62a6.2,6.2,0,0,1,2.83.51,1.86,1.86,0,0,1,1.11,1.69c0,1.73-2.09,2.43-3.68,2.43l-.46,0L44.29,114v1.86c0,1,.11,1,1.66,1.14v.33H41.32V117c1.44-.11,1.51-.18,1.51-1.17v-4.71c0-1.06-.18-1.08-1.51-1.18v-.33Zm-1.35,4a4.21,4.21,0,0,0,1.22.15c1.12,0,2.51-.4,2.51-1.9,0-1.31-1.2-1.83-2.61-1.83a2,2,0,0,0-.94.14c-.13.09-.18.23-.18.55Z" transform="translate(-33.19 -20.55)"/><path class="cls-5" d="M55.87,117.34V117c1.09-.1,1.23-.22,1-.67s-.55-1-.9-1.8H52.34c-.27.53-.52,1-.75,1.48-.37.77-.14.87,1.24,1v.33H49V117a1.83,1.83,0,0,0,1.91-1.25l3.46-6.24.54-.07c1.05,2,2.21,4.28,3.26,6.33.54,1,.69,1.13,1.88,1.23v.33ZM54.2,111l-1.61,3h3.13Z" transform="translate(-33.19 -20.55)"/><path class="cls-5" d="M74,111.42a2.13,2.13,0,0,0-2.33-1.55c-1.3,0-1.76.67-1.76,1.29,0,.82.74,1.24,2.13,1.75,2,.74,2.88,1.28,2.88,2.41s-1.52,2.2-3.68,2.2a9.53,9.53,0,0,1-2.57-.39,13.14,13.14,0,0,1-.45-1.79l.52-.09a2.82,2.82,0,0,0,2.81,1.83c1.21,0,2-.59,2-1.37s-.69-1.28-2.16-1.85c-1.76-.68-2.75-1.25-2.75-2.35s1.24-2.06,3.45-2.06a14.3,14.3,0,0,1,2.21.23c.07.42.13.9.27,1.67Z" transform="translate(-33.19 -20.55)"/><path class="cls-5" d="M82.9,117.34V117c1.08-.1,1.22-.22,1-.67s-.55-1-.9-1.8H79.36c-.27.53-.52,1-.75,1.48-.37.77-.13.87,1.24,1v.33H76V117c1.06-.1,1.32-.18,1.91-1.25l3.47-6.24.53-.07c1.06,2,2.21,4.28,3.27,6.33.53,1,.68,1.13,1.87,1.23v.33ZM81.22,111c-.53,1-1.1,2.1-1.61,3h3.13Z" transform="translate(-33.19 -20.55)"/><path class="cls-5" d="M96.11,115.37c-.1.37-.61,1.6-.77,2H87.55V117c1.52-.11,1.66-.17,1.66-1.18v-4.72c0-1-.17-1.06-1.51-1.16v-.33h4.49V110c-1.34.1-1.53.14-1.53,1.16V116c0,.73.14.89,1.09.9l1.33,0a2,2,0,0,0,1.49-.37,4.17,4.17,0,0,0,1-1.23Z" transform="translate(-33.19 -20.55)"/><path class="cls-5" d="M103.05,109.45c2.87,0,5.43,1.56,5.43,3.92,0,2.56-2.45,4.15-5.53,4.15s-5.56-1.74-5.56-4S99.52,109.45,103.05,109.45Zm-.33.44a3.29,3.29,0,0,0-3.58,3.34,3.83,3.83,0,0,0,4.08,3.84c2,0,3.55-1.07,3.55-3.36A3.73,3.73,0,0,0,102.72,109.89Z" transform="translate(-33.19 -20.55)"/><path class="cls-5" d="M121.67,110c-1.07.08-1.42.2-1.47.75,0,.38,0,.88,0,2v4.77h-.64l-7.16-6.22v3c0,1.07.05,1.61.08,2,0,.61.45.79,1.66.86v.33H110V117c1-.06,1.44-.24,1.5-.82a15.31,15.31,0,0,0,.09-2v-3a.85.85,0,0,0-.34-.78c-.31-.3-.67-.37-1.49-.43v-.33h2.51l7.1,6v-2.91a14.94,14.94,0,0,0-.08-2c0-.53-.43-.7-1.77-.76v-.33h4.13Z" transform="translate(-33.19 -20.55)"/></g></svg>